<svg xmlns="http://www.w3.org/2000/svg" viewBox="0 0 240 240" role="img" aria-label="Blob Champion stage">
  <defs>
    <linearGradient id="body" x1="48" x2="192" y1="28" y2="224" gradientUnits="userSpaceOnUse">
      <stop stop-color="#dff7ff"/>
      <stop offset=".68" stop-color="#6fcf97"/>
      <stop offset="1" stop-color="#42aa6f"/>
    </linearGradient>
  </defs>
  
  <path d="M79 75 50 54l-1 42" fill="#f2d133" stroke="#18212f" stroke-width="7" stroke-linejoin="round"/>
<path d="m161 75 29-21 1 42" fill="#f2d133" stroke="#18212f" stroke-width="7" stroke-linejoin="round"/>
  <path d="M78 51h84l-7 29H85z" fill="#7c3aed" stroke="#18212f" stroke-width="7" stroke-linejoin="round"/><path d="M91 51 120 18l29 33" fill="#f2d133" stroke="#18212f" stroke-width="7" stroke-linejoin="round"/>
  <path d="M49.76 140 25 160M190.24 140l37 20" stroke="#18212f" stroke-width="10" stroke-linecap="round"/>
  <path d="M52 128c0-66 31-104 68-104s68 38 68 104v33c0 45-30 73-68 73s-68-28-68-73z" fill="url(#body)" stroke="#18212f" stroke-width="8"/>
  
  <circle cx="96" cy="114" r="10" fill="#18212f"/>
  <circle cx="144" cy="114" r="10" fill="#18212f"/>
  <path d="M106 153c11 10 17 10 28 0" fill="none" stroke="#18212f" stroke-width="7" stroke-linecap="round"/>
  <path d="M90 164 72 232M150 164l18 20" stroke="#18212f" stroke-width="10" stroke-linecap="round"/>
</svg>