<svg xmlns="http://www.w3.org/2000/svg" viewBox="0 0 240 240" role="img" aria-label="Blob Hatchling stage">
  <defs>
    <linearGradient id="body" x1="48" x2="192" y1="28" y2="224" gradientUnits="userSpaceOnUse">
      <stop stop-color="#dff7ff"/>
      <stop offset=".68" stop-color="#6fcf97"/>
      <stop offset="1" stop-color="#42aa6f"/>
    </linearGradient>
  </defs>
  
  <path d="M79 75 50 54l-1 42" fill="#f2d133" stroke="#18212f" stroke-width="7" stroke-linejoin="round"/>
<path d="m161 75 29-21 1 42" fill="#f2d133" stroke="#18212f" stroke-width="7" stroke-linejoin="round"/>
  
  
  <path d="M68 128c0-50 23-79 52-79s52 29 52 79v25c0 34-23 56-52 56s-52-22-52-56z" fill="url(#body)" stroke="#18212f" stroke-width="8"/>
  
  <circle cx="96" cy="114" r="9" fill="#18212f"/>
  <circle cx="144" cy="114" r="9" fill="#18212f"/>
  <path d="M106 153c11 10 17 10 28 0" fill="none" stroke="#18212f" stroke-width="7" stroke-linecap="round"/>
  <path d="M90 155 72 232M150 155l18 20" stroke="#18212f" stroke-width="10" stroke-linecap="round"/>
</svg>