<svg xmlns="http://www.w3.org/2000/svg" viewBox="0 0 320 320" role="img" aria-label="Blob Champion stage">
  <defs>
    <linearGradient id="body" x1="95" y1="70" x2="228" y2="266" gradientUnits="userSpaceOnUse">
      <stop stop-color="#b8fff0"/><stop offset=".62" stop-color="#54d9b0"/><stop offset="1" stop-color="#198f85"/>
    </linearGradient>
    <filter id="soft"><feGaussianBlur stdDeviation="5"/></filter>
  </defs>

    <ellipse cx="160" cy="278" rx="93.6" ry="14" fill="#172033" opacity=".13"/><path d="M61 156q-28-33-17-61 35 8 49 42M259 156q28-33 17-61-35 8-49 42" fill="#72e8c8" stroke="#172033" stroke-width="8" stroke-linejoin="round"/><path d="M48 171q-24 14-32 43M272 171q24 14 32 43" fill="none" stroke="#172033" stroke-width="13" stroke-linecap="round"/><path d="M126 250q-22 25-45 27M194 250q22 25 45 27" fill="none" stroke="#172033" stroke-width="15" stroke-linecap="round"/>
    <path d="M160 38C61.2 50 30 122 30 190C30 250 88.5 274 160 274S290 250 290 190C290 122 258.8 50 160 38Z" fill="url(#body)" stroke="#172033" stroke-width="9" stroke-linejoin="round"/>
    <path d="M139 47q21-35 42 0l-6 20h-30Z" fill="#ffe06b" stroke="#172033" stroke-width="7"/><path d="M112 113q14-25 42-29" fill="none" stroke="#fff" stroke-width="10" stroke-linecap="round" opacity=".45"/>

  <ellipse cx="135" cy="148" rx="7" ry="9" fill="#172033"/>
  <ellipse cx="185" cy="148" rx="7" ry="9" fill="#172033"/>
  <path d="M144 173 Q160 187 176 173" fill="none" stroke="#172033" stroke-width="6" stroke-linecap="round"/><path d="m160 183 11 19 22 4-15 16 3 23-21-10-21 10 3-23-15-16 22-4Z" fill="#ffe06b" stroke="#172033" stroke-width="6"/>
</svg>
