<svg xmlns="http://www.w3.org/2000/svg" viewBox="0 0 320 320" role="img" aria-label="Dragon Hatchling stage">
  <defs>
    <linearGradient id="body" x1="95" y1="70" x2="228" y2="266" gradientUnits="userSpaceOnUse">
      <stop stop-color="#c9ff9d"/><stop offset=".62" stop-color="#68c95b"/><stop offset="1" stop-color="#298d55"/>
    </linearGradient>
    <filter id="soft"><feGaussianBlur stdDeviation="5"/></filter>
  </defs>

    <ellipse cx="160" cy="281" rx="86" ry="15" fill="#172033" opacity=".13"/>
    <path d="M214 214q67 4 63-49-18 25-45 13" fill="#4aad58" stroke="#172033" stroke-width="10" stroke-linecap="round" stroke-linejoin="round"/><path d="M120 151Q96 124 76 142l30 27-35 24q36 6 66 29Z" fill="#87df78" stroke="#172033" stroke-width="9" stroke-linejoin="round"/>
    <path d="M200 151Q224 124 244 142l-30 27 35 24q-36 6-66 29Z" fill="#87df78" stroke="#172033" stroke-width="9" stroke-linejoin="round"/>
    <path d="M117 188q-32 23-38 61M203 188q32 23 38 61" fill="none" stroke="#172033" stroke-width="15" stroke-linecap="round"/>
    <path d="M160 124C127 124 110 155 110 209V206C110 234 134 248 160 248S210 234 210 206V209C210 155 193 124 160 124Z" fill="url(#body)" stroke="#172033" stroke-width="10"/>
    <path d="M138 213 129 278M182 213l9 65" fill="none" stroke="#172033" stroke-width="16" stroke-linecap="round"/>
    <path d="M160 183q-25 0-35 23 35 20 70 0-10-23-35-23Z" fill="#f7e4a4" stroke="#172033" stroke-width="7"/>

  <ellipse cx="135" cy="145" rx="7" ry="9" fill="#172033"/>
  <ellipse cx="185" cy="145" rx="7" ry="9" fill="#172033"/>
  <path d="M144 170 Q160 184 176 170" fill="none" stroke="#172033" stroke-width="6" stroke-linecap="round"/>
    <path d="m151 167 9 7 9-7" fill="none" stroke="#172033" stroke-width="6" stroke-linecap="round" stroke-linejoin="round"/>
</svg>
