<svg xmlns="http://www.w3.org/2000/svg" viewBox="0 0 320 320" role="img" aria-label="Dragon Champion stage">
  <defs>
    <linearGradient id="body" x1="95" y1="70" x2="228" y2="266" gradientUnits="userSpaceOnUse">
      <stop stop-color="#c9ff9d"/><stop offset=".62" stop-color="#68c95b"/><stop offset="1" stop-color="#298d55"/>
    </linearGradient>
    <filter id="soft"><feGaussianBlur stdDeviation="5"/></filter>
  </defs>

    <ellipse cx="160" cy="281" rx="86" ry="15" fill="#172033" opacity=".13"/>
    <path d="M214 214q67 4 63-49-18 25-45 13" fill="#4aad58" stroke="#172033" stroke-width="10" stroke-linecap="round" stroke-linejoin="round"/><path d="M94 151Q44 70 24 88l51 42-56 36q36 6 66 29Z" fill="#87df78" stroke="#172033" stroke-width="9" stroke-linejoin="round"/>
    <path d="M226 151Q276 70 296 88l-51 42 56 36q-36 6-66 29Z" fill="#87df78" stroke="#172033" stroke-width="9" stroke-linejoin="round"/><path d="M126 101 110 41l35 31M194 101l16-60-35 31" fill="#f3d56a" stroke="#172033" stroke-width="8" stroke-linejoin="round"/><path d="m133 74 10-29 17 20 18-20 10 29" fill="#f3d56a" stroke="#172033" stroke-width="7" stroke-linejoin="round"/>
    <path d="M91 144q-32 23-38 61M229 144q32 23 38 61" fill="none" stroke="#172033" stroke-width="15" stroke-linecap="round"/>
    <path d="M160 80C109.84 80 84 111 84 165V234C84 262 120.47999999999999 276 160 276S236 262 236 234V165C236 111 210.16 80 160 80Z" fill="url(#body)" stroke="#172033" stroke-width="10"/>
    <path d="M126.56 241 112.88 278M193.44 241l13.68 37" fill="none" stroke="#172033" stroke-width="16" stroke-linecap="round"/>
    <path d="M160 183q-25 0-35 23 35 20 70 0-10-23-35-23Z" fill="#f7e4a4" stroke="#172033" stroke-width="7"/>

  <ellipse cx="135" cy="136" rx="7" ry="9" fill="#172033"/>
  <ellipse cx="185" cy="136" rx="7" ry="9" fill="#172033"/>
  <path d="M144 161 Q160 175 176 161" fill="none" stroke="#172033" stroke-width="6" stroke-linecap="round"/>
    <path d="m151 167 9 7 9-7" fill="none" stroke="#172033" stroke-width="6" stroke-linecap="round" stroke-linejoin="round"/>
</svg>
