<svg xmlns="http://www.w3.org/2000/svg" viewBox="0 0 320 320" role="img" aria-label="Dragon Youngling stage">
  <defs>
    <linearGradient id="body" x1="95" y1="70" x2="228" y2="266" gradientUnits="userSpaceOnUse">
      <stop stop-color="#c9ff9d"/><stop offset=".62" stop-color="#68c95b"/><stop offset="1" stop-color="#298d55"/>
    </linearGradient>
    <filter id="soft"><feGaussianBlur stdDeviation="5"/></filter>
  </defs>

    <ellipse cx="160" cy="281" rx="86" ry="15" fill="#172033" opacity=".13"/>
    <path d="M214 214q67 4 63-49-18 25-45 13" fill="#4aad58" stroke="#172033" stroke-width="10" stroke-linecap="round" stroke-linejoin="round"/><path d="M111 151Q76 105 56 123l37 32-42 28q36 6 66 29Z" fill="#87df78" stroke="#172033" stroke-width="9" stroke-linejoin="round"/>
    <path d="M209 151Q244 105 264 123l-37 32 42 28q-36 6-66 29Z" fill="#87df78" stroke="#172033" stroke-width="9" stroke-linejoin="round"/><path d="M126 101 110 51l35 31M194 101l16-50-35 31" fill="#f3d56a" stroke="#172033" stroke-width="8" stroke-linejoin="round"/>
    <path d="M108 173q-32 23-38 61M212 173q32 23 38 61" fill="none" stroke="#172033" stroke-width="15" stroke-linecap="round"/>
    <path d="M160 109C121.06 109 101 140 101 194V214C101 242 129.32 256 160 256S219 242 219 214V194C219 140 198.94 109 160 109Z" fill="url(#body)" stroke="#172033" stroke-width="10"/>
    <path d="M134.04 221 123.42 278M185.96 221l10.62 57" fill="none" stroke="#172033" stroke-width="16" stroke-linecap="round"/>
    <path d="M160 183q-25 0-35 23 35 20 70 0-10-23-35-23Z" fill="#f7e4a4" stroke="#172033" stroke-width="7"/>

  <ellipse cx="135" cy="142" rx="7" ry="9" fill="#172033"/>
  <ellipse cx="185" cy="142" rx="7" ry="9" fill="#172033"/>
  <path d="M144 167 Q160 181 176 167" fill="none" stroke="#172033" stroke-width="6" stroke-linecap="round"/>
    <path d="m151 167 9 7 9-7" fill="none" stroke="#172033" stroke-width="6" stroke-linecap="round" stroke-linejoin="round"/>
</svg>
