<svg xmlns="http://www.w3.org/2000/svg" viewBox="0 0 320 320" role="img" aria-label="Forest Sprite Champion stage">
  <defs>
    <linearGradient id="body" x1="95" y1="70" x2="228" y2="266" gradientUnits="userSpaceOnUse">
      <stop stop-color="#d7f2aa"/><stop offset=".62" stop-color="#78c96b"/><stop offset="1" stop-color="#38875c"/>
    </linearGradient>
    <filter id="soft"><feGaussianBlur stdDeviation="5"/></filter>
  </defs>

    <ellipse cx="160" cy="281" rx="83" ry="14" fill="#172033" opacity=".13"/><path d="M111 78q10-51 38-54l11 35 11-35q28 3 38 54" fill="none" stroke="#b67845" stroke-width="13" stroke-linecap="round"/><path d="M109 82q-34-34-53-7 5 33 51 35M211 82q34-34 53-7-5 33-51 35" fill="#8bdc68" stroke="#172033" stroke-width="9"/>
    <path d="M126 65q-9-46 23-55 18 27 11 57M194 65q9-46-23-55-18 27-11 57" fill="#4ba85f" stroke="#172033" stroke-width="9"/>
    <path d="M111 174q-42 16-53 56M209 174q42 16 53 56" fill="none" stroke="#7d4f32" stroke-width="15" stroke-linecap="round"/>
    <path d="M160 84c-42 0-65 30-65 82v30c0 38 27 57 65 57s65-19 65-57v-30c0-52-23-82-65-82Z" fill="url(#body)" stroke="#172033" stroke-width="10"/>
    <path d="M132 248q-8 23-28 29M188 248q8 23 28 29" fill="none" stroke="#7d4f32" stroke-width="16" stroke-linecap="round"/>
    <path d="M121 208q39 30 78 0" fill="#b67845" stroke="#172033" stroke-width="7"/>

  <ellipse cx="135" cy="151" rx="7" ry="9" fill="#172033"/>
  <ellipse cx="185" cy="151" rx="7" ry="9" fill="#172033"/>
  <path d="M144 176 Q160 190 176 176" fill="none" stroke="#172033" stroke-width="6" stroke-linecap="round"/>
    <path d="M112 125q48-27 96 0" fill="none" stroke="#e8ffc8" stroke-width="8" stroke-linecap="round" opacity=".7"/>
</svg>
