<svg xmlns="http://www.w3.org/2000/svg" viewBox="0 0 240 240" role="img" aria-label="Robot Egg stage">
  <defs>
    <linearGradient id="body" x1="48" x2="192" y1="28" y2="224" gradientUnits="userSpaceOnUse">
      <stop stop-color="#e7f2ff"/>
      <stop offset=".68" stop-color="#8fb7d8"/>
      <stop offset="1" stop-color="#557da4"/>
    </linearGradient>
  </defs>
  <path d="M83 78h74" stroke="#18212f" stroke-width="7" stroke-linecap="round"/><circle cx="120" cy="33" r="9" fill="#77e0ff" stroke="#18212f" stroke-width="6"/>
  
  
  
  <path d="M75 128c0-44 20-69 45-69s45 25 45 69v22c0 30-20 48-45 48s-45-19-45-48z" fill="url(#body)" stroke="#18212f" stroke-width="8"/>
  <path d="M70 132c17-16 32-16 49 0 16 15 32 15 51 0" fill="none" stroke="#18212f" stroke-width="7" stroke-linecap="round"/>
  <circle cx="96" cy="108" r="9" fill="#18212f"/>
  <circle cx="144" cy="108" r="9" fill="#18212f"/>
  <path d="M106 153c11 10 17 10 28 0" fill="none" stroke="#18212f" stroke-width="7" stroke-linecap="round"/>
  
</svg>