<svg xmlns="http://www.w3.org/2000/svg" viewBox="0 0 320 320" role="img" aria-label="Robot Explorer stage">
  <defs>
    <linearGradient id="body" x1="95" y1="70" x2="228" y2="266" gradientUnits="userSpaceOnUse">
      <stop stop-color="#d9f4ff"/><stop offset=".62" stop-color="#8fc8e8"/><stop offset="1" stop-color="#547ca5"/>
    </linearGradient>
    <filter id="soft"><feGaussianBlur stdDeviation="5"/></filter>
  </defs>

    <ellipse cx="160" cy="281" rx="91" ry="15" fill="#172033" opacity=".13"/><path d="M160 64V37" stroke="#172033" stroke-width="8"/><circle cx="160" cy="31" r="11" fill="#63e6ff" stroke="#172033" stroke-width="7"/><path d="m101 158-42 15 18 40 29-20M219 158l42 15-18 40-29-20" fill="#f4cc54" stroke="#172033" stroke-width="9" stroke-linejoin="round"/>
    <path d="M105 194 65 240M215 194l47 46" stroke="#172033" stroke-width="17" stroke-linecap="round"/>
    <rect x="93" y="139" width="134" height="108" rx="19" fill="url(#body)" stroke="#172033" stroke-width="10"/>
    <rect x="98" y="64" width="124" height="91" rx="22" fill="#d9f4ff" stroke="#172033" stroke-width="10"/>
    <rect x="118" y="97" width="84" height="42" rx="16" fill="#22304a"/>
    <circle cx="140" cy="118" r="8" fill="#63e6ff"/><circle cx="180" cy="118" r="8" fill="#63e6ff"/>
    <circle cx="160" cy="193" r="22" fill="#22304a" stroke="#172033" stroke-width="5"/><path d="m160 177 6 11 13 2-10 9 2 13-11-6-11 6 2-13-10-9 13-2Z" fill="#f4cc54"/>
    <path d="M126 247v28M194 247v28" stroke="#172033" stroke-width="18" stroke-linecap="round"/>
</svg>
