<svg xmlns="http://www.w3.org/2000/svg" viewBox="0 0 240 240" role="img" aria-label="Robot Explorer stage">
  <defs>
    <linearGradient id="body" x1="48" x2="192" y1="28" y2="224" gradientUnits="userSpaceOnUse">
      <stop stop-color="#e7f2ff"/>
      <stop offset=".68" stop-color="#8fb7d8"/>
      <stop offset="1" stop-color="#557da4"/>
    </linearGradient>
  </defs>
  <path d="M83 78h74" stroke="#18212f" stroke-width="7" stroke-linecap="round"/><circle cx="120" cy="33" r="9" fill="#77e0ff" stroke="#18212f" stroke-width="6"/>
  <path d="M91 72 69 44M149 72l22-28" stroke="#18212f" stroke-width="7" stroke-linecap="round"/>
<circle cx="67" cy="42" r="8" fill="#77e0ff" stroke="#18212f" stroke-width="5"/>
<circle cx="173" cy="42" r="8" fill="#77e0ff" stroke="#18212f" stroke-width="5"/>
  <path d="M74 50h92l-10 28H84z" fill="#2563eb" stroke="#18212f" stroke-width="7" stroke-linejoin="round"/>
  <path d="M50.480000000000004 140 25 160M189.52 140l37 20" stroke="#18212f" stroke-width="10" stroke-linecap="round"/>
  <path d="M56 128c0-62 29-97 64-97s64 35 64 97v31c0 42-28 68-64 68s-64-26-64-68z" fill="url(#body)" stroke="#18212f" stroke-width="8"/>
  
  <circle cx="96" cy="114" r="9" fill="#18212f"/>
  <circle cx="144" cy="114" r="9" fill="#18212f"/>
  <path d="M106 153c11 10 17 10 28 0" fill="none" stroke="#18212f" stroke-width="7" stroke-linecap="round"/>
  <path d="M90 162 72 232M150 162l18 20" stroke="#18212f" stroke-width="10" stroke-linecap="round"/>
</svg>