<svg xmlns="http://www.w3.org/2000/svg" viewBox="0 0 320 320" role="img" aria-label="Rock Golem Youngling stage">
  <defs>
    <linearGradient id="body" x1="95" y1="70" x2="228" y2="266" gradientUnits="userSpaceOnUse">
      <stop stop-color="#e4dfd5"/><stop offset=".62" stop-color="#a9a197"/><stop offset="1" stop-color="#6d6a70"/>
    </linearGradient>
    <filter id="soft"><feGaussianBlur stdDeviation="5"/></filter>
  </defs>

    <ellipse cx="160" cy="282" rx="104" ry="15" fill="#172033" opacity=".14"/><path d="m108 124-17-40 34 17 18 1M212 124l17-40-34 17-18 1" fill="#7469d8" stroke="#172033" stroke-width="8" stroke-linejoin="round"/>
    <path d="M96 156 51 211l25 35 50-49M224 156l53 55-25 35-50-49" fill="#8d877f" stroke="#172033" stroke-width="11" stroke-linejoin="round"/>
    <path d="M160 84 L228 139 L249 244 L204 284 L160 260 L116 284 L71 244 L92 139Z" fill="url(#body)" stroke="#172033" stroke-width="11" stroke-linejoin="round"/>
    <path d="m126 246-24 33M194 246l24 33" stroke="#172033" stroke-width="22" stroke-linecap="round"/>
    <path d="m160 182 20 29-20 34-20-34Z" fill="#7de3ff" stroke="#172033" stroke-width="7"/><path d="M160 204v14M153 211h14" stroke="#fff" stroke-width="5" stroke-linecap="round" opacity=".86"/>

  <ellipse cx="135" cy="137" rx="7" ry="9" fill="#172033"/>
  <ellipse cx="185" cy="137" rx="7" ry="9" fill="#172033"/>
  <path d="M144 162 Q160 176 176 162" fill="none" stroke="#172033" stroke-width="6" stroke-linecap="round"/>
    <path d="m111 116 22 13M209 116l-22 13" stroke="#f2efe9" stroke-width="8" stroke-linecap="round" opacity=".65"/>
</svg>
