<svg xmlns="http://www.w3.org/2000/svg" viewBox="0 0 240 240" role="img" aria-label="Space Beast Champion stage">
  <defs>
    <linearGradient id="body" x1="48" x2="192" y1="28" y2="224" gradientUnits="userSpaceOnUse">
      <stop stop-color="#efeaff"/>
      <stop offset=".68" stop-color="#7e6ed6"/>
      <stop offset="1" stop-color="#5545a8"/>
    </linearGradient>
  </defs>
  <circle cx="190" cy="58" r="10" fill="#7de3ff" stroke="#18212f" stroke-width="5"/><path d="M53 58h18M62 49v18" stroke="#f2d133" stroke-width="6" stroke-linecap="round"/>
  <path d="m78 72-27-8-15 24 30 8" fill="#7de3ff" stroke="#18212f" stroke-width="7" stroke-linejoin="round"/>
<path d="m162 72 27-8 15 24-30 8" fill="#7de3ff" stroke="#18212f" stroke-width="7" stroke-linejoin="round"/>
  <path d="M78 51h84l-7 29H85z" fill="#7c3aed" stroke="#18212f" stroke-width="7" stroke-linejoin="round"/><path d="M91 51 120 18l29 33" fill="#7de3ff" stroke="#18212f" stroke-width="7" stroke-linejoin="round"/>
  <path d="M49.76 140 25 160M190.24 140l37 20" stroke="#18212f" stroke-width="10" stroke-linecap="round"/>
  <path d="M52 128c0-66 31-104 68-104s68 38 68 104v33c0 45-30 73-68 73s-68-28-68-73z" fill="url(#body)" stroke="#18212f" stroke-width="8"/>
  
  <circle cx="96" cy="114" r="10" fill="#18212f"/>
  <circle cx="144" cy="114" r="10" fill="#18212f"/>
  <path d="M106 153c11 10 17 10 28 0" fill="none" stroke="#18212f" stroke-width="7" stroke-linecap="round"/>
  <path d="M90 164 72 232M150 164l18 20" stroke="#18212f" stroke-width="10" stroke-linecap="round"/>
</svg>