<svg xmlns="http://www.w3.org/2000/svg" viewBox="0 0 320 320" role="img" aria-label="Space Beast Hatchling stage">
  <defs>
    <linearGradient id="body" x1="95" y1="70" x2="228" y2="266" gradientUnits="userSpaceOnUse">
      <stop stop-color="#e7ddff"/><stop offset=".62" stop-color="#9e8ae8"/><stop offset="1" stop-color="#5548a9"/>
    </linearGradient>
    <filter id="soft"><feGaussianBlur stdDeviation="5"/></filter>
  </defs>

    <ellipse cx="160" cy="282" rx="88" ry="15" fill="#172033" opacity=".13"/><path d="M112 118Q72 75 62 112l42 35M208 118q40-43 50-6l-42 35" fill="#f3ce5a" stroke="#172033" stroke-width="9" stroke-linejoin="round"/>
    <path d="M111 174q-42 17-54 59M209 174q42 17 54 59" fill="none" stroke="#172033" stroke-width="16" stroke-linecap="round"/>
    <path d="M160 91c-45 0-73 33-73 91v27c0 43 31 64 73 64s73-21 73-64v-27c0-58-28-91-73-91Z" fill="url(#body)" stroke="#172033" stroke-width="10"/>
    <path d="M128 254q-14 18-34 24M192 254q14 18 34 24" fill="none" stroke="#172033" stroke-width="16" stroke-linecap="round"/>
    <ellipse cx="160" cy="148" rx="23" ry="29" fill="#20284a"/><circle cx="160" cy="145" r="9" fill="#68e0ee"/><path d="M163 137v8M159 141h8" stroke="#fff" stroke-width="5" stroke-linecap="round" opacity=".86"/>
    <path d="m160 188 8 15 17 3-12 12 3 17-16-8-16 8 3-17-12-12 17-3Z" fill="#f3ce5a" stroke="#172033" stroke-width="6"/>
    <path d="M145 243q15 10 30 0" fill="none" stroke="#172033" stroke-width="6" stroke-linecap="round"/>
</svg>
