<svg xmlns="http://www.w3.org/2000/svg" viewBox="0 0 240 240" role="img" aria-label="Hatchling stage companion">
  <defs>
    <linearGradient id="body" x1="62" x2="178" y1="36" y2="210" gradientUnits="userSpaceOnUse">
      <stop stop-color="#dff7ff"/>
      <stop offset="1" stop-color="#6fcf97"/>
    </linearGradient>
  </defs>
  <path d="M74 117c0-43 20-73 46-73s46 30 46 73v37c0 30-20 52-46 52s-46-22-46-52z" fill="url(#body)" stroke="#18212f" stroke-width="8"/>
  <path d="M78 79 52 58l-1 43" fill="#f2d133" stroke="#18212f" stroke-width="7" stroke-linejoin="round"/>
  <path d="m162 79 26-21 1 43" fill="#f2d133" stroke="#18212f" stroke-width="7" stroke-linejoin="round"/>
  <circle cx="98" cy="114" r="8" fill="#18212f"/>
  <circle cx="142" cy="114" r="8" fill="#18212f"/>
  <path d="M108 145c9 8 15 8 24 0" fill="none" stroke="#18212f" stroke-width="6" stroke-linecap="round"/>
  <path d="M89 199 74 222M151 199l15 23" stroke="#18212f" stroke-width="8" stroke-linecap="round"/>
</svg>
