<svg xmlns="http://www.w3.org/2000/svg" viewBox="0 0 240 240" role="img" aria-label="Champion stage companion">
  <defs>
    <linearGradient id="body" x1="38" x2="202" y1="26" y2="224" gradientUnits="userSpaceOnUse">
      <stop stop-color="#e8fbff"/>
      <stop offset=".55" stop-color="#54b96f"/>
      <stop offset="1" stop-color="#23724e"/>
    </linearGradient>
  </defs>
  <path d="M45 126c0-64 30-101 75-101s75 37 75 101v26c0 45-32 73-75 73s-75-28-75-73z" fill="url(#body)" stroke="#18212f" stroke-width="8"/>
  <path d="M70 64 26 28l6 71" fill="#f2d133" stroke="#18212f" stroke-width="7" stroke-linejoin="round"/>
  <path d="m170 64 44-36-6 71" fill="#f2d133" stroke="#18212f" stroke-width="7" stroke-linejoin="round"/>
  <path d="M73 42h94l-9 32H82z" fill="#7c3aed" stroke="#18212f" stroke-width="7" stroke-linejoin="round"/>
  <path d="M92 42 120 15l28 27" fill="#f2d133" stroke="#18212f" stroke-width="7" stroke-linejoin="round"/>
  <path d="M54 140 15 151M186 140l39 11" stroke="#18212f" stroke-width="11" stroke-linecap="round"/>
  <circle cx="94" cy="111" r="10" fill="#18212f"/>
  <circle cx="146" cy="111" r="10" fill="#18212f"/>
  <path d="M104 153c13 13 19 13 32 0" fill="none" stroke="#18212f" stroke-width="8" stroke-linecap="round"/>
  <path d="M86 218 61 235M154 218l25 17" stroke="#18212f" stroke-width="11" stroke-linecap="round"/>
</svg>
